<svg width="294" height="293" viewBox="0 0 294 293" fill="none" xmlns="http://www.w3.org/2000/svg">
<path d="M210.781 12.2188C211.558 -3.01647 233.561 -4.47783 236.391 10.5127C250.458 92.0081 267.339 173.342 285.683 254.291C288.08 264.765 290.513 275.232 293.008 285.548C293.341 286.924 293.153 288.388 292.449 289.627C291.745 290.866 290.589 291.777 289.228 292.162C287.866 292.547 286.404 292.376 285.155 291.689C283.907 291.003 282.979 289.854 282.543 288.507C279.248 278.323 276.052 268.014 272.915 257.685C256.015 201.633 240.59 145.133 227.086 88.0938C217.143 131.653 199.147 173.635 171.058 209.467C143.24 245.207 104.731 273.004 61.6631 286.018C50.8971 289.237 39.7824 291.546 28.6328 292.376C27.7588 292.436 26.8754 292.314 26.0566 292.007C11.6356 291.83 0.000129993 280.186 0 265.845C0 251.393 11.8152 239.677 26.3896 239.677C40.9639 239.677 52.7783 251.393 52.7783 265.845C52.7783 267.741 52.5727 269.589 52.1865 271.37C53.2124 270.867 54.2347 270.359 55.251 269.842C92.0045 250.925 123.233 223.571 148.191 191.631C187.517 141.477 206.507 77.1648 210.781 12.2188ZM226.462 241.927C226.733 236.117 235.189 235.587 236.219 241.312C238.092 254.611 240.227 267.997 242.414 281.385C242.697 283.095 242.984 284.81 243.275 286.495C243.366 287.013 243.28 287.556 243.006 288.012C242.732 288.468 242.298 288.798 241.792 288.934C241.286 289.069 240.745 288.998 240.28 288.739C239.816 288.48 239.47 288.053 239.29 287.56C238.695 285.922 238.118 284.264 237.554 282.605C235.582 276.772 233.742 270.899 232.049 264.98C230.584 268.671 228.7 272.231 226.326 275.551C221.802 281.918 214.972 286.808 207.315 288.494C205.403 288.912 203.428 289.135 201.463 289.052C200.968 289.017 200.471 288.869 200.067 288.568C199.664 288.268 199.388 287.845 199.296 287.372C199.204 286.899 199.302 286.403 199.563 285.974C199.825 285.543 200.232 285.22 200.678 285.003C202.086 284.261 203.444 283.369 204.722 282.425C209.829 278.601 213.85 274.064 217.375 269.157C222.83 261.543 225.596 251.919 226.462 241.927ZM222.691 174.882C223.244 174.882 223.691 175.33 223.691 175.882V186.342C223.691 186.894 223.244 187.342 222.691 187.342H212.125C211.573 187.342 211.125 186.894 211.125 186.342V175.882C211.125 175.33 211.573 174.882 212.125 174.882H222.691ZM240.276 174.882C240.828 174.882 241.276 175.33 241.276 175.882V186.342C241.276 186.894 240.828 187.342 240.276 187.342H229.71C229.158 187.342 228.71 186.894 228.71 186.342V175.882C228.71 175.33 229.158 174.882 229.71 174.882H240.276ZM222.691 157.438C223.244 157.438 223.691 157.885 223.691 158.438V168.897C223.691 169.45 223.244 169.897 222.691 169.897H212.125C211.573 169.897 211.125 169.45 211.125 168.897V158.437C211.125 157.884 211.573 157.438 212.125 157.438H222.691ZM240.276 157.438C240.828 157.438 241.276 157.885 241.276 158.438V168.897C241.276 169.45 240.828 169.897 240.276 169.897H229.71C229.158 169.897 228.71 169.45 228.71 168.897V158.437C228.71 157.884 229.158 157.438 229.71 157.438H240.276Z" fill="white"/>
</svg>
