<svg width="178" height="114" viewBox="0 0 178 114" fill="none" xmlns="http://www.w3.org/2000/svg">
<path d="M87.2188 1.68555C87.3273 -0.416971 90.3681 -0.617655 90.7539 1.45215C96.7058 34.2067 103.968 66.7674 112.013 99.1084C113.061 103.286 114.127 107.46 115.222 111.576C115.272 111.767 115.248 111.971 115.15 112.144C115.053 112.316 114.891 112.443 114.701 112.496C114.511 112.549 114.307 112.524 114.134 112.428C113.961 112.331 113.834 112.17 113.778 111.98C112.573 107.883 111.401 103.731 110.251 99.5732C102.542 71.4888 95.588 43.1825 89.7373 14.627C86.9934 37.3573 79.4096 59.7871 65.2422 78.1064C54.5675 91.9868 40.1732 103.162 23.7734 109.214C21.6652 109.983 19.5163 110.666 17.3438 111.235C15.5054 112.818 13.1159 113.778 10.5 113.778C4.70114 113.778 0.000206161 109.077 0 103.278C3.64019e-05 97.4794 4.70103 92.7783 10.5 92.7783C16.299 92.7783 21 97.4794 21 103.278C20.9999 105.091 20.5393 106.796 19.7305 108.284C20.7901 107.873 21.8411 107.44 22.8799 106.986C38.4005 100.125 51.7885 89.0218 62.0732 75.667C78.2585 54.7407 85.7714 28.1327 87.2188 1.68555ZM167.57 91.793C169.9 91.9142 172.131 92.7731 173.94 94.2451C175.75 95.7175 177.045 97.728 177.638 99.9844L177.192 100.102C176.625 97.9396 175.384 96.0133 173.65 94.6025C171.917 93.1919 169.778 92.3691 167.546 92.2529C165.314 92.137 163.102 92.7339 161.231 93.957C159.361 95.1804 157.926 96.9672 157.138 99.0586C156.349 101.15 156.247 103.44 156.844 105.594C157.441 107.748 158.708 109.656 160.461 111.043C162.214 112.43 164.363 113.223 166.597 113.309C168.83 113.394 171.034 112.767 172.888 111.518L173.145 111.899C171.21 113.203 168.91 113.857 166.579 113.769C164.248 113.679 162.005 112.851 160.176 111.404C158.346 109.957 157.024 107.964 156.4 105.716C155.777 103.468 155.884 101.079 156.707 98.8965C157.53 96.7136 159.027 94.8491 160.979 93.5723C162.932 92.2956 165.241 91.6719 167.57 91.793ZM165.52 92.5127C167.839 92.1786 170.203 92.6401 172.227 93.8213C174.25 95.0027 175.815 96.8348 176.664 99.0186C177.513 101.202 177.598 103.61 176.904 105.848C176.21 108.086 174.778 110.023 172.843 111.344C170.907 112.664 168.581 113.29 166.244 113.12C163.907 112.95 161.696 111.993 159.973 110.405C158.249 108.818 157.114 106.693 156.752 104.378L157.181 104.312C157.527 106.529 158.615 108.565 160.267 110.086C161.918 111.607 164.036 112.524 166.275 112.688C168.515 112.851 170.744 112.251 172.599 110.985C174.453 109.72 175.824 107.864 176.489 105.72C177.154 103.575 177.073 101.268 176.26 99.1758C175.446 97.0834 173.947 95.3282 172.008 94.1963C170.069 93.0645 167.803 92.6223 165.581 92.9424C163.359 93.2627 161.31 94.3259 159.77 95.959L159.454 95.6611C161.062 93.9566 163.2 92.8469 165.52 92.5127ZM133.832 93.0381C134.317 93.0381 134.681 93.1597 134.924 93.4023C135.166 93.6449 135.288 93.9898 135.288 94.4375C135.288 94.9041 135.166 95.2689 134.924 95.5303C134.681 95.7728 134.317 95.8936 133.832 95.8936H125.74V101.466H133.244C133.711 101.466 134.065 101.588 134.308 101.83C134.569 102.073 134.7 102.418 134.7 102.866C134.7 103.333 134.569 103.697 134.308 103.958C134.065 104.201 133.711 104.322 133.244 104.322H125.74V111.098C125.74 112.367 125.161 113.002 124.004 113.002C123.425 113.002 122.968 112.844 122.632 112.526C122.315 112.19 122.156 111.714 122.156 111.098V94.9424C122.156 94.3265 122.315 93.8593 122.632 93.542C122.968 93.2061 123.444 93.0382 124.06 93.0381H133.832ZM146.446 93.0381C148.612 93.0381 150.283 93.5602 151.459 94.6055C152.635 95.6321 153.223 97.0797 153.223 98.9463C153.223 100.159 152.952 101.205 152.411 102.082C151.888 102.959 151.122 103.631 150.114 104.098C149.707 104.286 149.263 104.434 148.785 104.547C149.081 104.639 149.357 104.768 149.61 104.938C150.189 105.311 150.694 105.9 151.123 106.702L153.223 110.594C153.447 110.986 153.549 111.369 153.53 111.742C153.512 112.115 153.372 112.423 153.11 112.666C152.849 112.89 152.467 113.002 151.963 113.002C151.459 113.002 151.048 112.9 150.73 112.694C150.413 112.47 150.133 112.134 149.891 111.686L147.062 106.478C146.727 105.843 146.325 105.423 145.858 105.218C145.411 104.994 144.832 104.882 144.123 104.882H141.463V111.154C141.463 111.733 141.313 112.19 141.015 112.526C140.716 112.844 140.268 113.002 139.671 113.002C139.092 113.002 138.644 112.844 138.326 112.526C138.028 112.19 137.879 111.733 137.879 111.154V94.8584C137.879 94.2611 138.037 93.8123 138.354 93.5137C138.672 93.1965 139.12 93.0382 139.698 93.0381H146.446ZM166.999 93.0352C172.379 93.0355 176.741 97.3973 176.741 102.777C176.741 108.157 172.379 112.519 166.999 112.52C161.619 112.519 157.257 108.158 157.257 102.777C157.257 97.3971 161.619 93.0352 166.999 93.0352ZM91.1641 93.7344C91.2148 92.6775 92.7552 92.582 92.9395 93.624C93.7957 98.9766 94.8183 104.324 95.9258 109.651C96.0685 110.331 96.2138 111.013 96.3623 111.683C96.3833 111.778 96.3692 111.879 96.3193 111.963C96.2694 112.047 96.1879 112.109 96.0938 112.134C95.9999 112.159 95.8995 112.145 95.8145 112.097C95.7293 112.048 95.6665 111.967 95.6377 111.874C95.434 111.213 95.2358 110.542 95.042 109.872C94.0227 106.322 93.0937 102.745 92.2754 99.1397C91.6795 101.723 90.668 104.224 89.1074 106.436C87.42 108.836 85.0038 110.774 82.2178 111.695C81.5219 111.923 80.7985 112.088 80.0723 112.146C79.9783 112.153 79.8819 112.13 79.8037 112.075C79.7256 112.02 79.6714 111.938 79.6533 111.846C79.6355 111.754 79.6546 111.658 79.7061 111.577C79.7577 111.497 79.8382 111.439 79.9277 111.41C80.5517 111.202 81.1625 110.916 81.7422 110.594C84.0604 109.287 85.9646 107.418 87.4727 105.283C89.8069 101.979 90.8969 97.8731 91.1641 93.7344ZM166.999 93.4424C161.844 93.4424 157.665 97.6222 157.665 102.777C157.665 107.932 161.844 112.111 166.999 112.111C172.154 112.111 176.334 107.932 176.334 102.777C176.334 97.6224 172.154 93.4427 166.999 93.4424ZM166.998 93.7012C172.01 93.7013 176.074 97.7651 176.074 102.777C176.074 107.79 172.01 111.853 166.998 111.854C161.986 111.853 157.922 107.789 157.922 102.777C157.922 97.7652 161.986 93.7015 166.998 93.7012ZM166.998 94.0811C162.196 94.0814 158.302 97.975 158.302 102.777C158.302 107.58 162.196 111.473 166.998 111.474C171.801 111.474 175.694 107.58 175.694 102.777C175.694 97.9748 171.801 94.0812 166.998 94.0811ZM166.916 94.3672C171.514 94.3676 175.242 98.0954 175.242 102.693C175.242 107.292 171.514 111.02 166.916 111.021C162.317 111.021 158.589 107.292 158.589 102.693C158.589 98.0951 162.318 94.3672 166.916 94.3672ZM166.916 101.365C166.182 101.365 165.587 101.96 165.587 102.693C165.587 103.427 166.182 104.022 166.916 104.022C167.649 104.022 168.244 103.427 168.244 102.693C168.244 101.96 167.649 101.366 166.916 101.365ZM141.463 102.222H145.831C147.119 102.222 148.089 101.96 148.742 101.438C149.414 100.896 149.751 100.094 149.751 99.0303C149.751 97.985 149.414 97.2004 148.742 96.6777C148.089 96.1367 147.119 95.8663 145.831 95.8662H141.463V102.222ZM88 66.7783C88.5523 66.7783 89 67.2261 89 67.7783V70.7783C88.9998 71.3304 88.5522 71.7783 88 71.7783H85C84.4478 71.7783 84.0002 71.3304 84 70.7783V67.7783C84 67.2261 84.4477 66.7783 85 66.7783H88ZM95 66.7783C95.5523 66.7783 96 67.2261 96 67.7783V70.7783C95.9998 71.3304 95.5522 71.7783 95 71.7783H92C91.4478 71.7783 91.0002 71.3304 91 70.7783V67.7783C91 67.2261 91.4477 66.7783 92 66.7783H95ZM88 59.7783C88.5523 59.7783 89 60.2261 89 60.7783V63.7783C88.9998 64.3304 88.5522 64.7783 88 64.7783H85C84.4478 64.7783 84.0002 64.3304 84 63.7783V60.7783C84 60.2261 84.4477 59.7783 85 59.7783H88ZM95 59.7783C95.5523 59.7783 96 60.2261 96 60.7783V63.7783C95.9998 64.3304 95.5522 64.7783 95 64.7783H92C91.4478 64.7783 91.0002 64.3304 91 63.7783V60.7783C91 60.2261 91.4477 59.7783 92 59.7783H95Z" fill="white"/>
</svg>
