<svg width="53" height="61" viewBox="0 0 53 61" fill="none" xmlns="http://www.w3.org/2000/svg">
<path d="M26.5 0C41.1355 0 53 11.8645 53 26.5C53 41.1355 41.1355 53 26.5 53C11.8645 53 0 41.1355 0 26.5C0 11.8645 11.8645 0 26.5 0ZM26.5 18C21.8056 18 18 21.8056 18 26.5C18 31.1944 21.8056 35 26.5 35C31.1944 35 35 31.1944 35 26.5C35 21.8056 31.1944 18 26.5 18ZM26.5 25.1953C27.2207 25.1953 27.8047 25.7793 27.8047 26.5C27.8047 27.2207 27.2207 27.8047 26.5 27.8047C25.7793 27.8047 25.1953 27.2207 25.1953 26.5C25.1953 25.7793 25.7793 25.1953 26.5 25.1953ZM26 17C29.0456 17 31.5274 17.9343 33.2422 19.5938C34.9516 21.2481 36 23.7208 36 27H38C38 23.2793 36.7983 20.2519 34.6328 18.1562C32.4726 16.0658 29.4543 15 26 15V17ZM26 13C33.0373 13 40 18.1379 40 27H42C42 16.8622 33.9626 11 26 11V13ZM25.9932 9C32.1306 9.0404 36.6022 11.194 39.5469 14.4521C42.5056 17.7259 44 22.2011 44 27H46C46 21.799 44.379 16.8166 41.0303 13.1113C37.6675 9.3906 32.6392 7.04371 26.0068 7L25.9932 9ZM26 5C35.2609 5 40.6836 8.03221 43.8291 12.168C47.0138 16.3554 48 21.8487 48 27H50C50 21.6514 48.9861 15.6446 45.4209 10.957C41.8164 6.21785 35.739 3 26 3V5Z" fill="#B3B3B3"/>
<path d="M33 60.2669H46V55.7669C46 54.5669 47.6427 53.9335 48.464 53.7669C48.476 47.6002 48.4928 34.1536 48.464 29.7006C47.6352 26.8476 45.476 27.556 44.5 28.2669V41.7669H43.5V26.2669C42.3 24.2669 41 25.4335 40.5 26.2669L40 40.7669C39.8333 40.9335 39.5 38.3669 39.5 26.7669C37.1 23.5669 35.5 25.4336 35 26.7669L36 41.7669H35C34.8333 39.1002 34.5 32.9669 34.5 29.7669C34.5 26.5669 31.5 28.4336 30 29.7669C30.3333 32.4336 30.8 38.7669 30 42.7669C24.8 37.1669 22.5 40.4336 22 42.7669L33 54.7669V60.2669Z" fill="#B3B3B3" stroke="white"/>
</svg>
